<svg width="24" height="24" viewBox="0 0 24 24" fill="none" xmlns="http://www.w3.org/2000/svg">
  <title>Bike (filled)</title>
  <g transform="matrix(
          1 0
          0 1
          0 3
        )"><path fill-rule="nonzero" clip-rule="nonzero" d="M 19.39990234375 6.100006103515625 L 16.39990234375 0 L 12 0 L 12 3 L 14.60009765625 3 L 15.60009765625 5 L 9.19970703125 5 L 8 2 L 4 2 L 4 5 L 6 5 L 6.39990234375 6.100006103515625 C 6.099902153015137 6.100006103515625 5.800000190734863 6 5.5 6 C 2.5 6 0 8.5 0 11.5 C 0 14.5 2.5 17 5.5 17 C 7.900000095367432 17 10.099804878234863 15.399999618530273 10.7998046875 13 L 13.19970703125 13 C 13.899706840515137 15.300000190734863 16 17 18.5 17 C 21.299999237060547 17 24 14.899999618530273 24 11.5 C 23.899999618530273 8.800000190734863 21.89990234375 6.500006198883057 19.39990234375 6.100006103515625 Z M 5.39990234375 14 C 3.9999022483825684 14 2.89990234375 12.899999618530273 2.89990234375 11.5 C 2.89990234375 10.199999809265137 3.9999022483825684 9 5.39990234375 9 C 6.799902439117432 9 7.89990234375 10.100000381469727 7.89990234375 11.5 C 7.89990234375 13.100000381469727 6.699902534484863 14 5.39990234375 14 Z M 13.10009765625 10 L 11.10009765625 10 L 10.2998046875 8 L 14.19970703125 8 C 13.69970703125 8.600000381469727 13.300097465515137 9.300000190734863 13.10009765625 10 Z M 18.39990234375 14 C 16.999902725219727 14 15.89990234375 12.899999618530273 15.89990234375 11.5 C 15.89990234375 10.199999809265137 16.999902725219727 9 18.39990234375 9 C 19.799901962280273 9 20.89990234375 10.100000381469727 20.89990234375 11.5 C 20.89990234375 13.100000381469727 19.699901580810547 14 18.39990234375 14 Z" fill="currentColor"/></g>
</svg>