<svg width="24" height="24" viewBox="0 0 24 24" fill="none" xmlns="http://www.w3.org/2000/svg">
  <title>Truck (filled)</title>
  <g transform="matrix(
          1 0
          0 1
          1 1
        )"><path fill-rule="nonzero" clip-rule="nonzero" d="M 21 9 L 21 0 L 1 0 L 1 9 L 0 9 L 0 15 L 2 15 L 2 22 L 6 22 L 6 20 L 16 20 L 16 22 L 20 22 L 20 15 L 22 15 L 22 9 L 21 9 Z M 15 17 L 15 15 L 17 15 L 17 17 L 15 17 Z M 5 15 L 7 15 L 7 17 L 5 17 L 5 15 Z M 10 17 L 10 15 L 12 15 L 12 17 L 10 17 Z M 5 12 L 5 8 L 17 8 L 17 12 L 5 12 Z" fill="currentColor"/></g>
</svg>